<svg version="1.1" id="Layer_1" xmlns="http://www.w3.org/2000/svg" xmlns:xlink="http://www.w3.org/1999/xlink" x="0px" y="0px"
	 width="100%" viewBox="0 0 1024 752" enable-background="new 0 0 1024 752" xml:space="preserve">
<path fill="#000000" opacity="1.000000" stroke="none" 
	d="
M448.929565,692.647095 
	C446.769989,693.039246 444.953369,693.308472 443.136505,693.309998 
	C413.138824,693.335693 383.141083,693.337830 353.143402,693.303528 
	C351.210144,693.301331 349.145874,693.797974 347.423279,692.511169 
	C346.669159,690.951233 347.668091,689.896057 348.312622,688.773560 
	C369.630066,651.645935 390.980835,614.537476 412.269257,577.393311 
	C437.366638,533.603394 462.372223,489.760864 487.488159,445.981598 
	C517.162231,394.257080 546.924988,342.583466 576.620483,290.871277 
	C585.744995,274.981689 594.664551,258.973724 603.872925,243.133240 
	C618.767334,217.511398 640.307190,201.468369 670.548157,200.310333 
	C695.841064,199.341797 716.898987,209.359406 733.192383,228.945328 
	C741.465454,238.890244 746.981628,250.554916 753.396667,261.638763 
	C780.600952,308.641541 807.642578,355.738464 834.726685,402.810760 
	C852.256897,433.278442 870.543335,463.343048 887.107727,494.327667 
	C921.464966,558.594849 907.481140,638.876343 846.983704,685.073181 
	C820.044983,705.644165 789.477539,716.176270 755.875305,715.710815 
	C697.558289,714.903015 653.277039,688.582520 623.240234,638.650208 
	C610.962646,618.240356 599.347473,597.432495 587.354797,576.850159 
	C586.072998,574.650330 585.537720,572.820312 586.927307,570.404846 
	C602.627686,543.113403 618.242920,515.773010 633.908691,488.461609 
	C634.553772,487.336945 635.470581,486.368103 636.205627,485.399384 
	C638.708191,485.770142 639.051147,487.839355 639.925110,489.331970 
	C660.632507,524.698364 680.947754,560.300842 702.118652,595.387085 
	C715.866333,618.170898 736.643555,629.893616 763.465393,626.384583 
	C786.847229,623.325623 803.596130,610.012756 811.736084,587.365234 
	C818.526123,568.473755 815.874084,550.164185 806.026917,533.061890 
	C776.184570,481.232666 746.035339,429.580261 716.064819,377.824707 
	C703.209229,355.624634 690.511597,333.333191 677.703796,311.105377 
	C676.479858,308.981171 675.608337,306.550476 673.366516,305.111572 
	C671.276123,305.650696 670.631714,307.485840 669.747009,309.026611 
	C626.445862,384.436676 583.152161,459.850983 539.877502,535.276184 
	C510.778717,585.993652 481.713348,636.730225 452.610565,687.445374 
	C451.622009,689.168030 450.390594,690.751282 448.929565,692.647095 
z"/>
<path fill="#000000" opacity="1.000000" stroke="none" 
	d="
M316.529846,318.593567 
	C331.197144,292.985138 345.646790,267.674042 360.184326,242.413513 
	C390.672455,189.437225 458.345245,186.183273 492.690887,232.567581 
	C501.828857,244.908569 508.389679,258.866211 516.346558,271.953949 
	C517.669067,274.129242 517.064941,276.013367 515.915710,278.022552 
	C500.039246,305.778381 484.200226,333.555634 468.330048,361.315063 
	C467.606750,362.580231 467.057068,364.073273 465.417816,364.557892 
	C463.704712,364.127136 463.297668,362.547638 462.574951,361.286591 
	C452.718964,344.089661 442.888489,326.878113 433.036316,309.678986 
	C429.712891,303.877136 428.611115,303.835114 425.256470,309.681305 
	C394.087585,364.000000 362.947815,418.335388 331.809937,472.671875 
	C308.621124,513.137024 285.409485,553.589294 262.335083,594.119629 
	C260.358307,597.591736 258.057190,599.119629 254.050278,599.106873 
	C223.390884,599.009155 192.731003,599.071777 162.071274,599.059692 
	C160.453293,599.059021 158.696945,599.353271 156.851212,597.190796 
	C209.927841,504.589355 263.139923,411.751587 316.529846,318.593567 
z"/>
</svg>