<svg version="1.1" id="Layer_1" xmlns="http://www.w3.org/2000/svg" xmlns:xlink="http://www.w3.org/1999/xlink" x="0px" y="0px"
	 width="100%" viewBox="0 0 1024 1024" enable-background="new 0 0 1024 1024" xml:space="preserve">
<path fill="#000000" opacity="1.000000" stroke="none" 
	d="
M162.531342,1.000000 
	C160.683197,2.289070 158.131241,1.988004 155.656311,1.993378 
	C106.492882,2.100126 57.329300,2.234504 8.166026,2.164765 
	C3.624500,2.158322 2.158667,3.328751 2.160625,8.013805 
	C2.211691,130.174026 2.051100,252.334335 2.074424,374.494598 
	C2.114930,586.649841 2.254495,798.805054 2.351451,1010.960266 
	C2.357238,1023.623718 2.352765,1023.623047 14.909039,1023.622681 
	C156.402451,1023.618652 297.895844,1023.612183 439.389252,1023.611450 
	C631.713623,1023.610413 824.037964,1023.614319 1016.362305,1023.612854 
	C1023.687866,1023.612793 1023.663086,1023.596802 1023.679138,1016.162476 
	C1023.786926,966.165466 1023.898071,916.168396 1024.046265,866.171448 
	C1024.053589,863.689209 1024.415894,861.208008 1024.806519,858.363159 
	C1025.000000,913.656433 1025.000000,969.312805 1025.000000,1024.984619 
	C683.739685,1024.984619 342.479340,1024.984619 1.109501,1024.984619 
	C1.109501,683.666687 1.109501,342.333344 1.109501,1.000000 
	C54.749302,1.000000 108.405991,1.000000 162.531342,1.000000 
z"/>
<path fill="#000000" opacity="1.000000" stroke="none" 
	d="
M1025.000000,624.531372 
	C1024.007690,623.331360 1024.117798,621.472168 1024.116821,619.647156 
	C1024.077881,549.986877 1024.042114,480.326569 1024.041504,410.666290 
	C1024.041504,408.352325 1024.411011,406.038330 1024.804199,403.362183 
	C1025.000000,476.687561 1025.000000,550.375122 1025.000000,624.531372 
z"/>
<path fill="#000000" opacity="1.000000" stroke="none" 
	d="
M1025.000000,161.531342 
	C1023.842896,160.016708 1024.102539,157.813416 1024.064819,155.672714 
	C1023.224365,107.989876 1024.106201,60.306305 1024.039062,12.623004 
	C1024.037231,11.317458 1024.382324,10.011428 1024.782715,8.352812 
	C1025.000000,59.020893 1025.000000,110.041786 1025.000000,161.531342 
z"/>
<path fill="#000000" opacity="1.000000" stroke="none" 
	d="
M1025.000000,4.500000 
	C1023.759705,2.177358 1021.315796,2.128896 1018.728638,2.137738 
	C990.816223,2.233137 962.903687,2.343526 934.991150,2.333706 
	C917.878296,2.327686 900.765320,2.140126 883.652954,1.976993 
	C881.680542,1.958189 879.711609,1.572437 877.370544,1.178409 
	C925.166687,1.000000 973.333313,1.007171 1021.500000,0.976720 
	C1023.680847,0.975341 1025.923096,0.561908 1025.000000,4.500000 
z"/>
<path fill="#000000" opacity="1.000000" stroke="none" 
	d="
M598.921265,286.002136 
	C586.198792,263.994476 573.656128,242.305298 561.112610,220.614548 
	C558.659363,221.857178 558.102051,223.712845 557.219238,225.258209 
	C529.792480,273.266907 502.389557,321.289215 475.012695,369.326385 
	C473.882660,371.309204 472.713348,372.961334 470.134583,372.956848 
	C458.640289,372.936768 447.145813,372.966248 435.651611,372.925781 
	C434.880096,372.923065 434.110077,372.489929 433.368195,372.265686 
	C432.667328,369.801147 434.261292,368.276794 435.196350,366.648956 
	C464.894409,314.946503 494.637299,263.269836 524.368103,211.586227 
	C527.523804,206.100418 530.582886,200.558121 533.796326,195.106628 
	C545.867004,174.629364 573.304749,173.474472 586.295471,193.426086 
	C595.553162,207.644531 603.603149,222.653137 612.100098,237.362244 
	C622.680298,255.677902 633.125488,274.071503 643.701233,292.389801 
	C662.460938,324.883606 647.632935,362.664978 618.816772,375.727905 
	C593.124084,387.374908 557.639038,382.660950 538.955688,348.214569 
	C535.383240,341.628113 531.581665,335.165100 527.835266,328.674255 
	C526.691284,326.692261 526.105896,324.905884 527.413757,322.637238 
	C532.903809,313.114014 538.236206,303.500061 543.654358,293.935150 
	C544.297607,292.799683 544.887878,291.523102 546.893738,291.221741 
	C551.644836,297.385406 555.006531,304.655945 559.181702,311.402008 
	C563.912537,319.045959 568.129517,327.010529 572.930786,334.607635 
	C580.085754,345.929047 593.096985,349.396301 604.276245,343.297485 
	C614.746765,337.585358 619.302795,323.391571 613.636658,311.944885 
	C609.287231,303.158051 603.981567,294.844574 598.921265,286.002136 
z"/>
<path fill="#000000" opacity="1.000000" stroke="none" 
	d="
M130.353943,574.000122 
	C130.357956,582.331482 130.228394,590.166077 130.423447,597.992676 
	C130.516449,601.723877 129.476913,603.475220 125.394882,603.370300 
	C116.902695,603.151917 108.399254,603.210876 99.903847,603.355774 
	C96.423363,603.415161 95.381577,602.144714 95.397652,598.641113 
	C95.552818,564.828003 95.887039,531.009399 95.442230,497.201935 
	C95.135399,473.881378 95.170143,450.572906 95.420197,427.258240 
	C95.430946,426.256042 95.418785,425.255341 96.449074,424.178864 
	C99.001999,423.729980 100.322533,425.808197 101.769638,427.521790 
	C128.424026,459.084473 155.059631,490.662994 181.715317,522.224548 
	C182.662216,523.345764 183.382797,524.743042 185.029984,525.318298 
	C187.304947,524.803711 188.272003,522.685730 189.617203,521.092773 
	C215.732941,490.166260 241.810974,459.207947 267.897949,428.257141 
	C268.434784,427.620209 268.969513,426.980194 269.533295,426.367462 
	C270.658478,425.144684 271.779144,423.556488 273.671448,424.172913 
	C275.733459,424.844696 275.255157,426.891205 275.263275,428.476013 
	C275.305145,436.640320 275.259399,444.805084 275.258301,452.969666 
	C275.251862,500.790924 275.253540,548.612183 275.240753,596.433472 
	C275.238922,603.286621 275.209503,603.297668 268.287384,603.309082 
	C261.122559,603.320923 253.957642,603.318848 246.792786,603.303345 
	C239.789291,603.288208 239.786072,603.277466 239.783691,596.460815 
	C239.774918,571.300598 239.771805,546.140320 239.752655,520.980103 
	C239.751541,519.514832 239.627792,518.049622 238.514465,515.906616 
	C220.903580,537.172729 203.292709,558.438843 185.154877,580.341248 
	C167.182312,558.724182 149.597534,537.573486 132.012756,516.422791 
	C131.459717,516.596680 130.906662,516.770569 130.353622,516.944397 
	C130.353622,535.796326 130.353622,554.648193 130.353943,574.000122 
z"/>
<path fill="#000000" opacity="1.000000" stroke="none" 
	d="
M394.661011,477.999939 
	C394.660156,461.673065 394.767700,445.844971 394.585175,430.020233 
	C394.537994,425.927155 395.837738,424.528290 399.991486,424.549866 
	C427.479431,424.692932 454.969910,424.453339 482.456787,424.676453 
	C510.045715,424.900360 534.463562,447.838654 537.360718,475.359161 
	C539.386597,494.603638 535.659424,512.057129 523.209961,527.283264 
	C517.582642,534.165710 510.272827,538.623352 501.467316,542.329102 
	C509.086273,552.606873 516.389221,562.422058 523.652405,572.266602 
	C530.850891,582.023376 538.009338,591.809692 544.975952,601.297913 
	C543.793030,603.820435 542.097107,603.278809 540.714722,603.285034 
	C529.886108,603.333557 519.053223,603.143372 508.230255,603.394958 
	C504.311676,603.485962 502.148041,601.676697 500.093719,598.788452 
	C489.474457,583.858643 478.569031,569.128174 468.174713,554.044739 
	C464.338104,548.477356 460.215973,545.354736 453.085632,546.144958 
	C447.160614,546.801697 441.100311,546.433594 435.109741,546.230530 
	C431.415894,546.105286 430.176788,547.481262 430.212616,551.169189 
	C430.363251,566.661316 430.144684,582.157593 430.356567,597.648254 
	C430.416656,602.044373 428.948883,603.531921 424.592865,603.386292 
	C416.605042,603.119202 408.589386,603.035339 400.609802,603.404175 
	C395.525299,603.639221 394.573273,601.484985 394.588867,596.950867 
	C394.724792,557.467590 394.663818,517.983704 394.661011,477.999939 
M470.453430,514.815613 
	C488.023468,514.743164 497.999084,507.759399 501.206787,493.221924 
	C502.149231,488.950653 501.861023,484.605164 501.677521,480.284088 
	C501.090240,466.456818 491.104279,456.455292 477.355682,456.266235 
	C463.367462,456.073822 449.373474,456.304779 435.384979,456.123047 
	C431.471924,456.072205 430.175507,457.403778 430.215424,461.318573 
	C430.380219,477.472900 430.385590,493.631226 430.200439,509.785217 
	C430.154022,513.836182 431.710754,514.927795 435.489624,514.871948 
	C446.813080,514.704468 458.140564,514.810791 470.453430,514.815613 
z"/>
<path fill="#000000" opacity="1.000000" stroke="none" 
	d="
M568.677002,564.999878 
	C568.678772,520.179260 568.677185,475.858643 568.686768,431.538025 
	C568.688232,424.626709 568.711731,424.615082 575.512146,424.604309 
	C583.343201,424.591888 591.180115,424.783112 599.003052,424.531128 
	C603.216553,424.395386 604.404419,426.032715 604.378296,430.063965 
	C604.238708,451.556854 604.450867,473.052490 604.228882,494.543976 
	C604.178711,499.407532 605.769165,500.808167 610.522278,500.771454 
	C635.013794,500.582367 659.508545,500.576324 683.999573,500.797852 
	C688.683838,500.840210 689.965637,499.315704 689.925659,494.807892 
	C689.738037,473.648987 689.825256,452.487457 689.852905,431.326935 
	C689.861633,424.684662 689.927063,424.656738 696.551208,424.634216 
	C704.382202,424.607605 712.219666,424.799225 720.041809,424.531464 
	C724.013733,424.395477 725.527588,425.339996 725.515442,429.717621 
	C725.359680,485.857452 725.368042,541.997925 725.464905,598.138000 
	C725.471436,601.952148 724.557739,603.513367 720.479065,603.384705 
	C712.156433,603.122253 703.813293,603.112976 695.491333,603.386536 
	C690.983521,603.534729 689.769897,601.669189 689.798523,597.480896 
	C689.934265,577.654236 689.754822,557.825134 689.940552,537.999329 
	C689.981018,533.679749 688.726196,532.218140 684.275391,532.252869 
	C659.450623,532.446838 634.622925,532.459351 609.798218,532.270386 
	C605.260132,532.235840 604.193970,533.839966 604.233521,538.081055 
	C604.417114,557.740295 604.186096,577.403625 604.399048,597.062317 
	C604.450195,601.777466 603.108948,603.617432 598.211548,603.401489 
	C590.561890,603.064148 582.875244,603.058289 575.226074,603.400269 
	C570.310608,603.619934 568.399841,602.198120 568.579102,596.987976 
	C568.939819,586.503235 568.680664,575.997192 568.677002,564.999878 
z"/>
<path fill="#000000" opacity="1.000000" stroke="none" 
	d="
M747.202637,596.239258 
	C775.801758,540.284607 804.221619,484.651031 832.655701,429.024750 
	C833.770691,426.843506 834.549072,424.221954 837.754150,424.239899 
	C841.046814,424.258331 841.574890,427.119598 842.652100,429.229858 
	C870.752380,484.278778 898.814697,539.347046 926.854126,594.426941 
	C928.108337,596.890686 929.707947,599.257874 930.160095,601.934753 
	C928.410889,603.804688 926.471497,603.272400 924.732849,603.283020 
	C915.733459,603.338135 906.728882,603.128418 897.735901,603.373413 
	C893.812988,603.480164 891.637634,602.012207 890.018494,598.538208 
	C886.923218,591.896729 883.365967,585.471497 880.222168,578.851257 
	C878.893250,576.052979 877.054199,574.969177 873.995728,574.978638 
	C849.496643,575.054443 824.997070,575.064026 800.498047,574.974426 
	C797.208679,574.962402 795.304199,576.198120 793.923584,579.146606 
	C790.745483,585.933594 787.275024,592.583069 784.004822,599.327881 
	C782.825500,601.760132 781.378662,603.351501 778.350952,603.317322 
	C768.019348,603.200684 757.685547,603.277222 747.352783,603.239685 
	C746.573181,603.236877 745.794739,602.916199 745.032776,602.747070 
	C744.491333,600.126526 746.312317,598.526428 747.202637,596.239258 
M814.820190,543.531738 
	C830.083679,543.531738 845.347168,543.531738 861.526428,543.531738 
	C853.370178,526.634583 845.541992,510.417175 837.154480,493.040955 
	C829.103271,509.852692 821.566162,525.570984 814.080933,541.313965 
	C813.847107,541.805786 814.150818,542.553223 814.820190,543.531738 
z"/>
<path fill="#000000" opacity="1.000000" stroke="none" 
	d="
M425.203186,289.166656 
	C417.146973,303.398071 409.179443,317.260345 401.446106,331.252075 
	C399.437927,334.885498 397.018860,336.446136 392.750244,336.309448 
	C383.097107,336.000397 373.427460,336.217896 363.764587,336.195557 
	C362.134613,336.191803 360.437653,336.497772 358.946655,335.577728 
	C358.124512,333.234924 359.630402,331.653931 360.586456,329.987915 
	C385.952606,285.785492 411.561096,241.720261 436.630646,197.350494 
	C446.599487,179.706985 465.609436,175.681381 479.128815,182.522797 
	C486.002991,186.001450 489.943451,191.971954 494.270233,197.986313 
	C499.471100,205.215637 499.548676,211.260391 494.377808,218.596558 
	C488.958649,226.285034 484.775970,234.845016 479.587646,243.829773 
	C473.645508,236.186218 470.300903,228.022293 464.973633,219.819885 
	C451.466125,243.367844 438.422668,266.106812 425.203186,289.166656 
z"/>
<path fill="#000000" opacity="1.000000" stroke="none" 
	d="
M317.013977,493.000000 
	C317.018524,472.011322 317.132324,451.521637 316.948242,431.034637 
	C316.904022,426.112915 318.392700,424.244781 323.530121,424.504303 
	C331.505005,424.907074 339.519714,424.742340 347.509796,424.528168 
	C351.505890,424.421051 353.136353,425.668671 353.129028,429.905792 
	C353.032074,485.874786 353.042450,541.844055 353.121094,597.813110 
	C353.126678,601.808350 351.890259,603.512207 347.668793,603.381836 
	C339.680817,603.135193 331.679718,603.327820 323.684174,603.305786 
	C317.275177,603.288086 317.054779,603.049927 317.051727,596.443665 
	C317.035919,562.129089 317.026001,527.814575 317.013977,493.000000 
z"/>
<path fill="#000000" opacity="1.000000" stroke="none" 
	d="
M490.508881,693.536133 
	C488.002533,695.472168 485.757080,697.158264 482.845917,699.344299 
	C489.303162,708.445312 495.682678,717.436768 502.890747,727.596008 
	C495.259979,728.186829 488.906006,728.463623 482.572968,727.375793 
	C480.731354,727.059448 479.911560,724.979309 478.873566,723.483948 
	C474.413361,717.058289 469.983978,710.611206 465.507355,704.197021 
	C463.721405,701.638184 452.679169,699.951660 450.317749,701.856689 
	C448.946838,702.962646 449.302124,704.586426 449.291534,706.043945 
	C449.249207,711.870239 449.186676,717.698181 449.289032,723.522827 
	C449.340118,726.429688 448.170441,727.905457 445.242645,727.923950 
	C444.910004,727.926086 444.577454,727.965027 444.244904,727.964355 
	C428.809479,727.932617 431.861694,729.031250 431.767700,716.125244 
	C431.607758,694.151978 431.849976,672.175171 431.611511,650.203308 
	C431.558441,645.309021 433.215393,643.765015 437.918579,643.950439 
	C449.552795,644.409119 461.208649,643.498047 472.847687,644.497192 
	C484.489899,645.496765 493.298248,650.655945 497.273346,661.938110 
	C501.343231,673.489319 499.614258,684.222961 490.508881,693.536133 
M458.559753,685.840088 
	C461.721375,685.828918 464.886871,685.914673 468.043854,685.787842 
	C476.777924,685.437073 481.879639,680.414673 481.633667,672.525818 
	C481.388336,664.657654 475.955902,659.552307 467.503265,659.659851 
	C462.845673,659.719177 458.194427,660.078186 453.547791,659.533508 
	C450.596649,659.187561 449.223663,660.347351 449.272156,663.422668 
	C449.369263,669.578491 449.370026,675.737793 449.276764,681.893677 
	C449.235138,684.638977 450.351990,685.909119 453.101257,685.811523 
	C454.596497,685.758423 456.096039,685.825195 458.559753,685.840088 
z"/>
<path fill="#000000" opacity="1.000000" stroke="none" 
	d="
M598.984741,644.022095 
	C600.148376,644.019775 600.814941,644.014526 601.481506,644.017944 
	C613.605347,644.080444 612.073364,642.737000 612.321533,655.135925 
	C612.397766,658.946289 610.722168,660.066895 607.230469,660.031860 
	C596.399658,659.923279 585.567322,659.972961 574.735535,659.954773 
	C567.503052,659.942566 567.411011,660.044617 567.791992,667.093079 
	C567.863770,668.420898 567.859741,669.760986 567.774170,671.087891 
	C567.285278,678.668640 567.273254,678.675537 575.046082,678.684937 
	C584.044861,678.695801 593.046265,678.818665 602.041199,678.634399 
	C605.908813,678.555237 607.303040,679.914246 607.324097,683.839539 
	C607.379517,694.197876 607.529907,694.195679 597.119385,694.186462 
	C588.787170,694.179077 580.451355,694.318176 572.124512,694.103882 
	C568.548767,694.011902 567.346863,695.492920 567.502625,698.783508 
	C568.189758,713.297607 563.705444,711.825073 580.008179,711.898865 
	C589.173401,711.940369 598.340271,711.999084 607.503662,711.862732 
	C611.162476,711.808289 612.491943,713.187317 612.394714,716.881226 
	C612.063538,729.462097 614.004761,727.968750 601.157959,727.985229 
	C586.326782,728.004272 571.495422,727.978699 556.664185,727.950806 
	C550.411987,727.939026 549.991150,727.557068 549.983887,721.586487 
	C549.954956,697.923096 549.946777,674.259766 549.955688,650.596375 
	C549.957947,644.536926 550.428223,644.050232 556.493164,644.034729 
	C570.491272,643.998962 584.489441,644.023132 598.984741,644.022095 
z"/>
<path fill="#000000" opacity="1.000000" stroke="none" 
	d="
M382.812317,685.473145 
	C377.348236,698.511719 366.597015,702.387085 354.137482,703.237366 
	C349.327087,703.565735 344.471954,703.402405 339.643890,703.250854 
	C336.470734,703.151306 335.080109,704.307068 335.177063,707.589233 
	C335.329559,712.750793 335.116058,717.922791 335.250122,723.085449 
	C335.335999,726.392029 334.109192,727.857727 330.663544,728.077087 
	C317.546234,728.912292 317.498810,728.995789 317.584045,716.018982 
	C317.728485,694.031372 316.789886,672.048279 317.469360,650.053162 
	C317.608826,645.539185 318.831268,643.826599 323.432037,643.936462 
	C333.425385,644.175110 343.433167,643.812378 353.426270,644.056091 
	C377.510193,644.643433 390.175049,662.345093 382.812317,685.473145 
M354.154907,660.010864 
	C349.168152,659.953552 344.179688,659.956299 339.195435,659.812073 
	C336.914337,659.746033 335.227203,660.061707 335.244690,662.894165 
	C335.288757,670.042358 335.284790,677.190979 335.265442,684.339355 
	C335.259308,686.609497 336.275848,687.688843 338.581848,687.664368 
	C343.900848,687.607971 349.246216,687.939148 354.533752,687.519470 
	C362.032837,686.924316 367.532776,680.778076 367.603485,673.586426 
	C367.675781,666.233459 363.090942,661.303345 354.154907,660.010864 
z"/>
<path fill="#000000" opacity="1.000000" stroke="none" 
	d="
M721.574585,644.119141 
	C723.916870,644.375427 724.888000,645.292175 725.232422,647.300781 
	C727.119812,658.307068 725.687256,660.073059 714.598145,660.008301 
	C702.257202,659.936340 702.248535,659.936340 702.243774,672.429932 
	C702.237488,688.921204 702.114075,705.414307 702.334351,721.902649 
	C702.395874,726.504211 700.770325,728.087891 696.274109,728.044861 
	C681.745178,727.905884 684.810303,728.496277 684.683472,716.765381 
	C684.503418,700.109253 684.634155,683.450012 684.575256,666.792358 
	C684.553162,660.542419 683.986023,660.044067 677.651123,660.000732 
	C673.653503,659.973389 669.654968,659.955444 665.657898,660.008179 
	C662.421814,660.050842 660.913757,658.816772 660.789062,655.300232 
	C660.388245,643.996094 660.269897,644.001282 671.642944,644.016113 
	C688.134033,644.037659 704.625061,644.057556 721.574585,644.119141 
z"/>
</svg>